<svg width="700" height="700" viewBox="0 0 700 700" fill="none" xmlns="http://www.w3.org/2000/svg">
<rect width="700" height="700" rx="71" fill="#37393A"/>
<path d="M328.205 79.8084C338.991 65.0567 361.009 65.0568 371.795 79.8084L454.203 192.514C457.536 197.072 462.213 200.47 467.577 202.231L600.232 245.778C617.595 251.477 624.399 272.418 613.703 287.235L531.979 400.437C528.674 405.015 526.887 410.514 526.87 416.16L526.447 555.779C526.392 574.053 508.579 586.995 491.182 581.401L358.266 538.658C352.891 536.93 347.109 536.93 341.734 538.658L208.818 581.401C191.421 586.995 173.608 574.053 173.553 555.779L173.13 416.16C173.113 410.514 171.326 405.015 168.021 400.437L86.2974 287.235C75.6008 272.418 82.4049 251.477 99.7676 245.778L232.423 202.231C237.787 200.47 242.464 197.072 245.797 192.514L328.205 79.8084Z" fill="#FE5F55"/>
<path d="M205.452 413.19L206.059 413.798C211.917 419.656 221.415 419.655 227.273 413.798L296.464 344.606C302.322 338.749 302.322 329.251 296.464 323.393L227.273 254.202C221.415 248.344 211.917 248.344 206.059 254.202L205.452 254.81C199.594 260.668 199.594 270.165 205.452 276.023L259.893 330.464C261.845 332.417 261.845 335.583 259.893 337.535L205.452 391.977C199.594 397.834 199.594 407.332 205.452 413.19Z" fill="#37393A" stroke="#37393A" stroke-width="10"/>
<path d="M494.548 254.81L493.941 254.202C488.083 248.344 478.585 248.344 472.727 254.202L403.536 323.393C397.678 329.251 397.678 338.749 403.536 344.607L472.727 413.798C478.585 419.656 488.083 419.656 493.941 413.798L494.548 413.19C500.406 407.332 500.406 397.835 494.548 391.977L440.107 337.535C438.155 335.583 438.155 332.417 440.107 330.464L494.548 276.023C500.406 270.165 500.406 260.668 494.548 254.81Z" fill="#37393A" stroke="#37393A" stroke-width="10"/>
</svg>
