<svg width="1621" height="700" viewBox="0 0 1621 700" fill="none" xmlns="http://www.w3.org/2000/svg">
<rect width="700" height="700" rx="71" fill="#37393A"/>
<path d="M328.205 79.8084C338.991 65.0567 361.009 65.0568 371.795 79.8084L454.203 192.514C457.536 197.072 462.213 200.47 467.577 202.231L600.232 245.778C617.595 251.477 624.399 272.418 613.703 287.235L531.979 400.437C528.674 405.015 526.887 410.514 526.87 416.16L526.447 555.779C526.392 574.053 508.579 586.995 491.182 581.401L358.266 538.658C352.891 536.93 347.109 536.93 341.734 538.658L208.818 581.401C191.421 586.995 173.608 574.053 173.553 555.779L173.13 416.16C173.113 410.514 171.326 405.015 168.021 400.437L86.2974 287.235C75.6008 272.418 82.4049 251.477 99.7676 245.778L232.423 202.231C237.787 200.47 242.464 197.072 245.797 192.514L328.205 79.8084Z" fill="#FE5F55"/>
<path d="M205.452 413.19L206.059 413.798C211.917 419.656 221.415 419.656 227.273 413.798L296.464 344.607C302.322 338.749 302.322 329.251 296.464 323.393L227.273 254.202C221.415 248.344 211.917 248.344 206.059 254.202L205.452 254.81C199.594 260.668 199.594 270.165 205.452 276.023L259.893 330.465C261.845 332.417 261.845 335.583 259.893 337.536L205.452 391.977C199.594 397.835 199.594 407.332 205.452 413.19Z" fill="#37393A" stroke="#37393A" stroke-width="10"/>
<path d="M494.548 254.81L493.941 254.202C488.083 248.344 478.585 248.344 472.727 254.202L403.536 323.393C397.678 329.251 397.678 338.749 403.536 344.607L472.727 413.798C478.585 419.656 488.083 419.656 493.941 413.798L494.548 413.19C500.406 407.332 500.406 397.835 494.548 391.977L440.107 337.535C438.155 335.583 438.155 332.417 440.107 330.464L494.548 276.023C500.406 270.165 500.406 260.668 494.548 254.81Z" fill="#37393A" stroke="#37393A" stroke-width="10"/>
<path d="M903.363 349.842H818.988V437H775.043V223.719H913.91V259.314H818.988V314.393H903.363V349.842ZM1006.34 439.93C983.1 439.93 964.154 432.801 949.506 418.543C934.955 404.285 927.68 385.291 927.68 361.561V357.459C927.68 341.541 930.756 327.332 936.908 314.832C943.061 302.234 951.752 292.566 962.982 285.828C974.311 278.992 987.201 275.574 1001.65 275.574C1023.33 275.574 1040.38 282.41 1052.78 296.082C1065.28 309.754 1071.53 329.139 1071.53 354.236V371.521H970.6C971.967 381.873 976.068 390.174 982.904 396.424C989.838 402.674 998.578 405.799 1009.12 405.799C1025.43 405.799 1038.18 399.891 1047.36 388.074L1068.16 411.365C1061.81 420.35 1053.22 427.381 1042.38 432.459C1031.54 437.439 1019.53 439.93 1006.34 439.93ZM1001.51 309.852C993.109 309.852 986.273 312.684 981 318.348C975.824 324.012 972.504 332.117 971.039 342.664H1029.93V339.295C1029.73 329.92 1027.19 322.693 1022.31 317.615C1017.43 312.439 1010.49 309.852 1001.51 309.852ZM1187.54 437C1185.59 433.191 1184.17 428.455 1183.29 422.791C1173.04 434.217 1159.71 439.93 1143.3 439.93C1127.78 439.93 1114.89 435.438 1104.63 426.453C1094.48 417.469 1089.4 406.141 1089.4 392.469C1089.4 375.672 1095.6 362.781 1108 353.797C1120.5 344.812 1138.52 340.271 1162.05 340.174H1181.54V331.092C1181.54 323.768 1179.63 317.908 1175.82 313.514C1172.11 309.119 1166.21 306.922 1158.1 306.922C1150.97 306.922 1145.36 308.631 1141.25 312.049C1137.25 315.467 1135.25 320.154 1135.25 326.111H1092.91C1092.91 316.932 1095.75 308.436 1101.41 300.623C1107.07 292.811 1115.08 286.707 1125.43 282.312C1135.79 277.82 1147.41 275.574 1160.3 275.574C1179.83 275.574 1195.31 280.506 1206.73 290.369C1218.26 300.135 1224.02 313.904 1224.02 331.678V400.379C1224.12 415.418 1226.21 426.795 1230.32 434.51V437H1187.54ZM1152.53 407.557C1158.78 407.557 1164.54 406.189 1169.82 403.455C1175.09 400.623 1179 396.863 1181.54 392.176V364.93H1165.72C1144.53 364.93 1133.25 372.254 1131.88 386.902L1131.73 389.393C1131.73 394.666 1133.59 399.012 1137.3 402.43C1141.01 405.848 1146.09 407.557 1152.53 407.557ZM1307.22 239.539V278.504H1334.32V309.559H1307.22V388.66C1307.22 394.52 1308.34 398.719 1310.59 401.258C1312.84 403.797 1317.13 405.066 1323.48 405.066C1328.17 405.066 1332.32 404.725 1335.93 404.041V436.121C1327.63 438.66 1319.09 439.93 1310.3 439.93C1280.61 439.93 1265.47 424.939 1264.89 394.959V309.559H1241.74V278.504H1264.89V239.539H1307.22ZM1363.18 429.822C1363.18 427.576 1363.96 425.672 1365.52 424.109C1367.08 422.449 1368.99 421.619 1371.23 421.619C1373.48 421.619 1375.38 422.449 1376.95 424.109C1378.61 425.672 1379.44 427.576 1379.44 429.822C1379.44 432.068 1378.61 433.973 1376.95 435.535C1375.38 437.098 1373.48 437.879 1371.23 437.879C1368.99 437.879 1367.08 437.098 1365.52 435.535C1363.96 433.973 1363.18 432.068 1363.18 429.822ZM1441.25 278.504V455.896C1441.25 470.545 1437.59 481.727 1430.27 489.441C1422.94 497.156 1412.69 501.014 1399.51 501.014C1394.72 501.014 1389.94 500.037 1385.15 498.084L1385.59 490.467C1390.28 492.225 1394.92 493.104 1399.51 493.104C1410.44 493.104 1418.79 489.832 1424.55 483.289C1430.41 476.844 1433.34 467.713 1433.34 455.896V278.504H1441.25ZM1429.97 228.992C1429.97 226.746 1430.76 224.842 1432.32 223.279C1433.88 221.619 1435.79 220.789 1438.03 220.789C1440.28 220.789 1442.18 221.619 1443.74 223.279C1445.4 224.842 1446.23 226.746 1446.23 228.992C1446.23 231.238 1445.4 233.143 1443.74 234.705C1442.18 236.268 1440.28 237.049 1438.03 237.049C1435.79 237.049 1433.88 236.268 1432.32 234.705C1430.76 233.143 1429.97 231.238 1429.97 228.992ZM1594.33 398.182C1594.33 378.943 1577.92 365.857 1545.11 358.924C1525.38 354.725 1511.66 349.354 1503.95 342.811C1496.23 336.17 1492.38 327.088 1492.38 315.564C1492.38 303.943 1497.26 294.373 1507.03 286.854C1516.89 279.334 1529.68 275.574 1545.4 275.574C1562.49 275.574 1576.21 279.676 1586.57 287.879C1596.92 295.984 1602.09 306.971 1602.09 320.838H1594.04C1594.04 310.193 1589.54 301.307 1580.56 294.178C1571.58 287.049 1559.86 283.484 1545.4 283.484C1531.54 283.484 1520.55 286.512 1512.45 292.566C1504.34 298.621 1500.29 306.189 1500.29 315.271C1500.29 322.4 1501.8 328.016 1504.83 332.117C1507.86 336.121 1512.79 339.783 1519.62 343.104C1526.46 346.326 1536.42 349.451 1549.51 352.479C1562.59 355.506 1572.94 359.07 1580.56 363.172C1588.18 367.273 1593.7 372.156 1597.11 377.82C1600.53 383.387 1602.24 390.223 1602.24 398.328C1602.24 410.828 1597.11 420.887 1586.86 428.504C1576.61 436.121 1563.18 439.93 1546.58 439.93C1528.8 439.93 1514.45 435.926 1503.51 427.918C1492.67 419.812 1487.25 409.412 1487.25 396.717H1495.16C1495.94 407.85 1500.82 416.541 1509.81 422.791C1518.89 428.943 1531.15 432.02 1546.58 432.02C1560.74 432.02 1572.21 428.748 1581 422.205C1589.89 415.564 1594.33 407.557 1594.33 398.182Z" fill="#37393A"/>
</svg>
